<svg xmlns="http://www.w3.org/2000/svg" width="800" height="400"><polygon points="50,350 50.0,77.14607902933722 63.46153846153846,76.2873630379562 76.92307692307692,71.81686566980403 90.38461538461539,71.22573911755376 103.84615384615384,70.80363964854035 117.3076923076923,69.55357968205573 130.76923076923077,69.31900374470644 144.23076923076923,68.71458073051167 157.69230769230768,67.85348051739544 171.15384615384616,66.69606810536203 184.6153846153846,64.74262858754406 198.07692307692307,62.79810624267992 211.53846153846155,55.65055540891683 225.0,51.77116698482274 238.46153846153845,50.87754151047358 251.92307692307693,50.48231122282232 265.38461538461536,50.0 278.8461538461538,50.753370416154496 292.3076923076923,52.26221306801631 305.7692307692308,55.12640762132321 319.2307692307692,57.33948198212477 332.6923076923077,59.910171770186196 346.15384615384613,62.230690520864755 359.61538461538464,62.85556665413628 373.0769230769231,63.171301096553236 386.53846153846155,64.27911576398799 400.0,65.0975195526367 413.46153846153845,65.57894594758085 426.9230769230769,65.01039961350432 440.3846153846154,64.15450803841634 453.84615384615387,64.24712175854472 467.3076923076923,64.23997940073991 480.7692307692308,64.86142578844112 494.2307692307692,65.94711643867242 507.6923076923077,67.12286935614719 521.1538461538462,71.26908647135895 534.6153846153846,72.16499591447791 548.0769230769231,72.43977160780429 561.5384615384615,72.37368371839864 575.0,71.08752361100738 588.4615384615385,71.19225287047857 601.9230769230769,71.18619490271925 615.3846153846154,68.28776328376443 628.8461538461538,68.27969922584174 642.3076923076923,69.49243493199617 655.7692307692308,69.76755190002353 669.2307692307693,70.66487319353553 682.6923076923077,73.85936110632673 696.1538461538462,74.56016436068296 709.6153846153846,75.52331033886713 723.0769230769231,75.5588524781341 736.5384615384615,76.33545902416586 750.0,77.26005013407956 750,350 50,350" stroke="red" fill="none" stroke-width="2" /></svg>